<?xml version="1.0" encoding="utf-8"?>
<!-- Generator: Adobe Illustrator 27.8.1, SVG Export Plug-In . SVG Version: 6.00 Build 0)  -->
<svg version="1.1" id="Layer_1" xmlns="http://www.w3.org/2000/svg" xmlns:xlink="http://www.w3.org/1999/xlink" x="0px" y="0px"
	 viewBox="0 0 893.81 169.43" style="enable-background:new 0 0 893.81 169.43;" xml:space="preserve">
<style type="text/css">
	.st0{fill:url(#SVGID_1_);}
	.st1{fill:#FFFFFF;}
	.st2{fill:url(#SVGID_00000150069874339232205220000007191014792444957315_);}
	.st3{fill:url(#SVGID_00000179628320355105194770000006078731013521884056_);}
	.st4{fill:url(#SVGID_00000042711756066463085220000002289387741810076585_);}
	.st5{fill:url(#SVGID_00000000221977605610428600000002193237453861278633_);}
	.st6{fill:url(#SVGID_00000059307506556924036550000008584447602747217848_);}
	.st7{fill:url(#SVGID_00000010305985606527871210000014950458388352505773_);}
	.st8{fill:url(#SVGID_00000157989391780889338530000003333184063933586588_);}
	.st9{fill:url(#SVGID_00000059998842182550857440000001598746475904241073_);}
	.st10{fill:url(#SVGID_00000010284974619958707400000000308258729850305704_);}
	.st11{fill:url(#SVGID_00000052783696257273252120000010011475147783322007_);}
	.st12{fill:url(#SVGID_00000103946195354335049730000007801928446631958178_);}
</style>
<g>
	<linearGradient id="SVGID_1_" gradientUnits="userSpaceOnUse" x1="14.8171" y1="-1.7298" x2="142.172" y2="158.1509">
		<stop  offset="0" style="stop-color:#00A2DF"/>
		<stop  offset="0.5" style="stop-color:#DE1C8F"/>
		<stop  offset="1" style="stop-color:#F8DB08"/>
	</linearGradient>
	<path class="st0" d="M138.6,159.21H20.62C9.23,159.21,0,149.98,0,138.6V20.62C0,9.23,9.23,0,20.62,0H138.6
		c11.39,0,20.62,9.23,20.62,20.62V138.6C159.21,149.98,149.98,159.21,138.6,159.21z"/>
	<g>
		<path class="st1" d="M69.18,22.41H52.47c-11.15,0-20.19,9.04-20.19,20.19v59.55h23.61v34.66h13.85c31.59,0,57.29-25.74,57.2-57.36
			C126.85,47.83,100.8,22.41,69.18,22.41z M63.72,94.22V77.49c0-6.41,5.2-11.62,11.62-11.62h2.31c7.93,0,14.56,6.49,14.43,14.43
			c-0.13,7.7-6.44,13.93-14.18,13.93H63.72z M69.27,128.11h-5.55v-26.05h13.84c12.08,0,22.16-9.59,22.34-21.67
			c0.18-12.29-9.76-22.34-22.01-22.34h-2.56c-10.74,0-19.45,8.71-19.45,19.45v16.74H40.98V43.98c0-7.11,5.76-12.87,12.87-12.87
			h15.89c26.79,0,48.57,21.83,48.5,48.63C118.16,106.55,96.08,128.11,69.27,128.11z"/>
	</g>
	<g>
		<g>
			<path class="st1" d="M603.32,83.11h-14.73v31.98h-10v-76.6h24.73c18.02,0,26.49,9.89,26.49,22.42
				C629.81,72.56,622.33,83.11,603.32,83.11z M603.32,74.87c11.43,0,16.27-5.39,16.27-13.96c0-8.9-4.84-14.18-16.27-14.18h-14.73
				v28.14H603.32z"/>
			<path class="st1" d="M652.23,115.09h-10V54.87h10v9.78c3.41-6.7,9.89-10.88,19.45-10.88V64.1h-2.64
				c-9.56,0-16.81,4.29-16.81,18.24V115.09z"/>
			<path class="st1" d="M681.57,38.27c0-3.85,2.97-6.81,6.81-6.81c3.63,0,6.6,2.97,6.6,6.81s-2.97,6.81-6.6,6.81
				C684.54,45.08,681.57,42.12,681.57,38.27z M683.22,54.87h10v60.23h-10V54.87z"/>
			<path class="st1" d="M754.33,81.02c0-12.31-6.7-18.57-16.81-18.57c-10.22,0-17.25,6.38-17.25,19.34v33.3h-10V54.87h10v8.57
				c3.96-6.27,11.21-9.67,19.34-9.67c13.96,0,24.62,8.57,24.62,25.83v35.5h-9.89V81.02z"/>
			<path class="st1" d="M782.8,63.11H775v-8.24h7.8V39.7h10v15.17h15.72v8.24H792.8v35.5c0,5.94,2.2,8.02,8.35,8.02h7.36v8.46h-9.01
				c-10.66,0-16.7-4.4-16.7-16.49V63.11z"/>
			
				<linearGradient id="SVGID_00000016034810024088415110000001349211217451750833_" gradientUnits="userSpaceOnUse" x1="824.002" y1="50.1099" x2="884.0339" y2="101.0803">
				<stop  offset="0" style="stop-color:#00A2DF"/>
				<stop  offset="0.5" style="stop-color:#DE1C8F"/>
				<stop  offset="1" style="stop-color:#F8DB08"/>
			</linearGradient>
			<path style="fill:url(#SVGID_00000016034810024088415110000001349211217451750833_);" d="M855.34,115.86
				c-21.54,0-38.47-16.16-38.47-39.13s16.93-39.13,38.47-39.13c21.65,0,38.47,16.16,38.47,39.13S876.99,115.86,855.34,115.86z
				 M855.34,107.18c16.16,0,28.25-11.76,28.25-30.44c0-18.79-12.09-30.44-28.25-30.44c-16.15,0-28.24,11.65-28.24,30.44
				C827.1,95.42,839.18,107.18,855.34,107.18z"/>
		</g>
		<g>
			<path class="st1" d="M251.25,77.43c0,23.3-15.89,37.56-40.17,37.56h-24.71V39.33h24.71C235.36,39.33,251.25,54.02,251.25,77.43z
				 M211.08,104.86c17.85,0,27.43-10.23,27.43-27.43c0-17.31-9.58-27.98-27.43-27.98h-12.3v55.41H211.08z"/>
			<path class="st1" d="M289.35,115.96c-17.2,0-29.94-12.19-29.94-31.02s12.19-30.92,29.94-30.92c17.09,0,29.17,11.87,29.17,29.5
				c0,2.07-0.11,4.03-0.44,6.1h-45.83c0.87,9.91,7.95,15.89,17.09,15.89c7.62,0,11.87-3.7,14.15-8.38h13.39
				C313.52,107.58,304.05,115.96,289.35,115.96z M272.37,79.61h33.2c-0.22-9.25-7.51-15.13-16.76-15.13
				C280.43,64.48,273.68,70.14,272.37,79.61z"/>
			<path class="st1" d="M352.49,115.96c-14.37,0-24.49-8.49-25.04-19.38h12.85c0.44,4.9,5.12,8.93,11.97,8.93
				c7.18,0,10.99-3.05,10.99-7.18c0-11.76-34.83-5.01-34.83-27c0-9.58,8.93-17.31,23.08-17.31c13.61,0,22.53,7.29,23.19,19.27
				h-12.41c-0.44-5.23-4.46-8.82-11.21-8.82c-6.64,0-10.12,2.72-10.12,6.75c0,12.08,33.85,5.33,34.51,27
				C375.46,108.35,366.64,115.96,352.49,115.96z"/>
			<path class="st1" d="M387.21,39.11c0-4.46,3.48-7.95,7.95-7.95c4.35,0,7.84,3.48,7.84,7.95c0,4.46-3.48,7.95-7.84,7.95
				C390.7,47.06,387.21,43.57,387.21,39.11z M388.85,55h12.41v59.98h-12.41V55z"/>
			<path class="st1" d="M441.75,54.02c9.8,0,17.09,4.57,20.79,9.69V55h12.52v60.96c0,16.33-10.56,28.63-29.28,28.63
				c-16,0-27.87-7.95-29.39-21.23h12.3c1.85,6.2,8.49,10.45,17.09,10.45c9.58,0,16.76-5.88,16.76-17.85v-10.01
				c-3.81,5.12-10.99,10.01-20.79,10.01c-15.78,0-28.3-12.74-28.3-31.24S425.97,54.02,441.75,54.02z M444.36,64.8
				c-9.25,0-18.18,6.97-18.18,19.92c0,12.95,8.93,20.47,18.18,20.47c9.36,0,18.18-7.29,18.18-20.25
				C462.54,72.1,453.73,64.8,444.36,64.8z"/>
			<path class="st1" d="M533.96,81.46c0-10.99-5.99-16.66-15.02-16.66c-9.14,0-15.13,5.66-15.13,16.66v33.53h-12.41V55h12.41v6.86
				c4.03-4.9,10.67-7.84,17.85-7.84c14.04,0,24.6,8.82,24.6,25.58v35.38h-12.3V81.46z"/>
		</g>
	</g>
	<g>
		
			<linearGradient id="SVGID_00000154405327233126417720000008356580607792702862_" gradientUnits="userSpaceOnUse" x1="510.1875" y1="149.1983" x2="893.8065" y2="149.1983">
			<stop  offset="0" style="stop-color:#00A2DF"/>
			<stop  offset="0.5" style="stop-color:#DE1C8F"/>
			<stop  offset="1" style="stop-color:#F8DB08"/>
		</linearGradient>
		<path style="fill:url(#SVGID_00000154405327233126417720000008356580607792702862_);" d="M882.3,169.43h-360.6
			c-6.36,0-11.51-5.15-11.51-11.51v-17.45c0-6.36,5.15-11.51,11.51-11.51h360.6c6.36,0,11.51,5.15,11.51,11.51v17.45
			C893.81,164.28,888.65,169.43,882.3,169.43z"/>
		<g>
			<g>
				<path class="st1" d="M536.47,137.05c5.66,0,9.86,2.83,11.67,7.69h-2.97c-1.41-3.37-4.39-5.47-8.7-5.47
					c-5.55,0-9.79,4.1-9.79,10.73c0,6.6,4.24,10.69,9.79,10.69c4.31,0,7.29-2.1,8.7-5.4h2.97c-1.81,4.78-6.02,7.61-11.67,7.61
					c-7.03,0-12.4-5.29-12.4-12.91C524.07,142.38,529.44,137.05,536.47,137.05z"/>
				<path class="st1" d="M553.18,149.2v-6.31h2.54v3.52c1.09-2.43,3.37-3.88,6.78-3.88v2.65h-0.69c-3.3,0-6.09,1.49-6.09,6.45v11.06
					h-2.54V149.2"/>
				<path class="st1" d="M574.86,162.97c-5.62,0-9.72-3.92-9.72-10.19c0-6.31,4.02-10.19,9.72-10.19c5.8,0,9.35,4.13,9.35,9.17
					c0,0.8,0,1.31-0.07,1.99h-16.42c0.22,4.64,3.44,7.07,7.14,7.07c3.37,0,5.65-1.78,6.38-4.42h2.68
					C583.01,160.15,579.82,162.97,574.86,162.97z M567.71,151.7h13.92c0.11-4.6-3.23-6.92-6.89-6.92
					C571.16,144.78,568,147.1,567.71,151.7z"/>
				<path class="st1" d="M597.15,142.6c3.99,0,6.71,2.14,7.83,4.64v-4.35h2.54v19.79h-2.54v-4.39c-1.16,2.54-3.91,4.68-7.87,4.68
					c-5.4,0-9.43-4.02-9.43-10.22C587.69,146.55,591.71,142.6,597.15,142.6z M597.62,144.81c-4.17,0-7.36,2.9-7.36,7.94
					c0,5,3.19,8.01,7.36,8.01c4.06,0,7.36-3.05,7.36-7.98C604.98,147.86,601.68,144.81,597.62,144.81z"/>
				<path class="st1" d="M614.04,145.03h-2.75v-2.14h2.75v-4.97h2.57v4.97h5.44v2.14h-5.44v12.29c0,2.43,0.83,3.19,3.12,3.19h2.32
					v2.17h-2.72c-3.44,0-5.29-1.41-5.29-5.37V145.03z"/>
				<path class="st1" d="M634.77,162.97c-5.62,0-9.71-3.92-9.71-10.19c0-6.31,4.02-10.19,9.71-10.19c5.8,0,9.35,4.13,9.35,9.17
					c0,0.8,0,1.31-0.07,1.99h-16.42c0.22,4.64,3.44,7.07,7.14,7.07c3.37,0,5.65-1.78,6.38-4.42h2.68
					C642.93,160.15,639.74,162.97,634.77,162.97z M627.63,151.7h13.92c0.11-4.6-3.23-6.92-6.89-6.92
					C631.08,144.78,627.92,147.1,627.63,151.7z"/>
				<path class="st1" d="M676.28,151.88h-5.11v10.8h-2.54v-25.34h7.65c5.87,0,8.55,3.12,8.55,7.29
					C684.83,148.73,682.22,151.88,676.28,151.88z M676.28,149.71c4.28,0,5.94-1.96,5.94-5.07c0-3.26-1.67-5.15-5.94-5.15h-5.11
					v10.22H676.28z"/>
				<path class="st1" d="M691.61,162.68h-2.54v-19.79h2.54v3.52c1.09-2.43,3.37-3.88,6.78-3.88v2.65h-0.69
					c-3.3,0-6.09,1.49-6.09,6.45V162.68z"/>
				<path class="st1" d="M701.61,137.27c0-1.09,0.83-1.85,1.85-1.85s1.85,0.76,1.85,1.85s-0.83,1.89-1.85,1.89
					S701.61,138.36,701.61,137.27z M702.19,142.89h2.54v19.79h-2.54V142.89z"/>
				<path class="st1" d="M725.32,151.37c0-4.39-2.39-6.63-6.02-6.63c-3.7,0-6.27,2.32-6.27,7.14v10.8h-2.54v-19.79h2.54v3.37
					c1.27-2.47,3.81-3.73,6.74-3.73c4.49,0,8.05,2.75,8.05,8.55v11.6h-2.5V151.37z"/>
				<path class="st1" d="M734.16,145.03h-2.75v-2.14h2.75v-4.97h2.57v4.97h5.44v2.14h-5.44v12.29c0,2.43,0.83,3.19,3.12,3.19h2.32
					v2.17h-2.72c-3.44,0-5.29-1.41-5.29-5.37V145.03z"/>
				<path class="st1" d="M787.12,150.07c0,7.87-4.97,12.61-13.41,12.61h-7.5v-25.34h7.5C782.16,137.34,787.12,142.13,787.12,150.07z
					 M773.71,160.58c7.18,0,10.84-3.99,10.84-10.51c0-6.56-3.66-10.62-10.84-10.62h-4.97v21.13H773.71z"/>
				<path class="st1" d="M800.35,162.97c-5.62,0-9.72-3.92-9.72-10.19c0-6.31,4.02-10.19,9.72-10.19c5.8,0,9.35,4.13,9.35,9.17
					c0,0.8,0,1.31-0.07,1.99h-16.42c0.22,4.64,3.44,7.07,7.14,7.07c3.37,0,5.65-1.78,6.38-4.42h2.68
					C808.51,160.15,805.32,162.97,800.35,162.97z M793.21,151.7h13.92c0.11-4.6-3.23-6.92-6.89-6.92
					C796.65,144.78,793.5,147.1,793.21,151.7z"/>
				<path class="st1" d="M814.34,135.86h2.54v26.83h-2.54V135.86z"/>
				<path class="st1" d="M822.06,137.27c0-1.09,0.83-1.85,1.85-1.85s1.85,0.76,1.85,1.85s-0.83,1.89-1.85,1.89
					S822.06,138.36,822.06,137.27z M822.64,142.89h2.54v19.79h-2.54V142.89z"/>
				<path class="st1" d="M831.31,142.89l6.67,17.33l6.67-17.33h2.68l-7.94,19.79h-2.86l-7.94-19.79H831.31z"/>
				<path class="st1" d="M859.33,162.97c-5.62,0-9.72-3.92-9.72-10.19c0-6.31,4.02-10.19,9.72-10.19c5.8,0,9.35,4.13,9.35,9.17
					c0,0.8,0,1.31-0.07,1.99h-16.42c0.22,4.64,3.44,7.07,7.14,7.07c3.37,0,5.65-1.78,6.38-4.42h2.68
					C867.48,160.15,864.29,162.97,859.33,162.97z M852.18,151.7h13.92c0.11-4.6-3.23-6.92-6.89-6.92
					C855.63,144.78,852.47,147.1,852.18,151.7z"/>
				<path class="st1" d="M875.86,162.68h-2.54v-19.79h2.54v3.52c1.09-2.43,3.37-3.88,6.78-3.88v2.65h-0.69
					c-3.3,0-6.09,1.49-6.09,6.45V162.68z"/>
			</g>
			<circle class="st1" cx="656.62" cy="153" r="2.03"/>
			<circle class="st1" cx="754.06" cy="153" r="2.03"/>
		</g>
	</g>
</g>
</svg>
