<?xml version="1.0" encoding="utf-8"?>
<!-- Generator: Adobe Illustrator 27.8.1, SVG Export Plug-In . SVG Version: 6.00 Build 0)  -->
<svg version="1.1" id="Layer_1" xmlns="http://www.w3.org/2000/svg" xmlns:xlink="http://www.w3.org/1999/xlink" x="0px" y="0px"
	 viewBox="0 0 869.81 491.82" style="enable-background:new 0 0 869.81 491.82;" xml:space="preserve">
<style type="text/css">
	.st0{fill:url(#SVGID_1_);}
	.st1{fill:#FFFFFF;}
	.st2{fill:url(#SVGID_00000049941948621564699170000016190658230382877077_);}
	.st3{fill:url(#SVGID_00000051341763861468772120000000320309950911101836_);}
	.st4{fill:url(#SVGID_00000096771694325647324640000012880052877095594413_);}
	.st5{fill:url(#SVGID_00000157996981252188667360000010805326812831870860_);}
	.st6{fill:url(#SVGID_00000055695300877944028810000000186781184751310238_);}
	.st7{fill:url(#SVGID_00000152249162009675722340000015643971815837517717_);}
	.st8{fill:url(#SVGID_00000165931276920291496880000011764610595387895425_);}
	.st9{fill:url(#SVGID_00000168816547384599805350000009210673397511652504_);}
	.st10{fill:url(#SVGID_00000142171405844939311450000012769217974732983437_);}
	.st11{fill:url(#SVGID_00000155104716208073466930000009336396133959980178_);}
	.st12{fill:url(#SVGID_00000106836591866225560560000018262161608084410796_);}
</style>
<g>
	<g>
		<linearGradient id="SVGID_1_" gradientUnits="userSpaceOnUse" x1="318.4475" y1="-4.4501" x2="547.3617" y2="282.9278">
			<stop  offset="0" style="stop-color:#00A2DF"/>
			<stop  offset="0.5" style="stop-color:#DE1C8F"/>
			<stop  offset="1" style="stop-color:#F8DB08"/>
		</linearGradient>
		<path class="st0" d="M544.24,283.5H325.56c-17.9,0-32.41-14.51-32.41-32.41V32.41c0-17.9,14.51-32.41,32.41-32.41h218.68
			c17.9,0,32.41,14.51,32.41,32.41v218.68C576.65,268.99,562.14,283.5,544.24,283.5z"/>
		<g>
			<path class="st1" d="M416.35,39.9h-29.77c-19.86,0-35.95,16.1-35.95,35.95v106.03h42.04v61.72h24.66
				c56.25,0,102.01-45.84,101.85-102.13C519.03,85.16,472.65,39.9,416.35,39.9z M406.61,167.78v-29.8
				c0-11.42,9.26-20.68,20.68-20.68h4.11c14.13,0,25.93,11.56,25.69,25.69c-0.24,13.72-11.47,24.8-25.24,24.8H406.61z
				 M416.49,228.11h-9.88v-46.39h24.65c21.51,0,39.45-17.08,39.77-38.58c0.33-21.88-17.37-39.79-39.18-39.79h-4.56
				c-19.12,0-34.62,15.5-34.62,34.62v29.8h-26.55V78.31c0-12.66,10.26-22.92,22.92-22.92h28.29c47.7,0,86.49,38.87,86.36,86.6
				C503.56,189.72,464.23,228.11,416.49,228.11z"/>
		</g>
	</g>
	<g>
		<path d="M512.65,385.55h-18.11v39.32h-12.3v-94.18h30.4c22.16,0,32.57,12.16,32.57,27.57
			C545.21,372.58,536.02,385.55,512.65,385.55z M512.65,375.42c14.05,0,20-6.62,20-17.16c0-10.95-5.95-17.43-20-17.43h-18.11v34.59
			H512.65z"/>
		<path d="M572.78,424.87h-12.3v-74.05h12.3v12.03c4.19-8.24,12.16-13.38,23.92-13.38v12.7h-3.24c-11.76,0-20.67,5.27-20.67,22.43
			V424.87z"/>
		<path d="M608.86,330.42c0-4.73,3.65-8.38,8.38-8.38c4.46,0,8.11,3.65,8.11,8.38c0,4.73-3.65,8.38-8.11,8.38
			C612.51,338.8,608.86,335.15,608.86,330.42z M610.89,350.82h12.3v74.05h-12.3V350.82z"/>
		<path d="M698.32,382.98c0-15.13-8.24-22.84-20.67-22.84c-12.57,0-21.21,7.84-21.21,23.78v40.94h-12.3v-74.05h12.3v10.54
			c4.86-7.7,13.78-11.89,23.78-11.89c17.16,0,30.27,10.54,30.27,31.75v43.65h-12.16V382.98z"/>
		<path d="M733.32,360.96h-9.59v-10.14h9.59v-18.65h12.3v18.65h19.32v10.14h-19.32v43.65c0,7.3,2.7,9.87,10.27,9.87h9.05v10.4
			h-11.08c-13.11,0-20.54-5.41-20.54-20.27V360.96z"/>
		
			<linearGradient id="SVGID_00000150822965157312442610000012621675324470775709_" gradientUnits="userSpaceOnUse" x1="783.9804" y1="345.107" x2="857.7908" y2="407.7762">
			<stop  offset="0" style="stop-color:#00A2DF"/>
			<stop  offset="0.5" style="stop-color:#DE1C8F"/>
			<stop  offset="1" style="stop-color:#F8DB08"/>
		</linearGradient>
		<path style="fill:url(#SVGID_00000150822965157312442610000012621675324470775709_);" d="M822.51,425.95
			c-26.48,0-47.29-19.86-47.29-48.11c0-28.24,20.81-48.11,47.29-48.11c26.62,0,47.3,19.86,47.3,48.11
			C869.81,406.09,849.13,425.95,822.51,425.95z M822.51,415.27c19.86,0,34.73-14.46,34.73-37.43c0-23.11-14.86-37.43-34.73-37.43
			c-19.86,0-34.73,14.32-34.73,37.43C787.78,400.82,802.65,415.27,822.51,415.27z"/>
		<path d="M79.77,378.7c0,28.64-19.54,46.18-49.39,46.18H0v-93.02h30.38C60.23,331.85,79.77,349.92,79.77,378.7z M30.38,412.43
			c21.95,0,33.73-12.58,33.73-33.73c0-21.28-11.78-34.4-33.73-34.4H15.26v68.13H30.38z"/>
		<path d="M126.62,426.08c-21.15,0-36.81-14.99-36.81-38.15s14.99-38.01,36.81-38.01c21.01,0,35.87,14.59,35.87,36.27
			c0,2.54-0.13,4.95-0.53,7.5H105.6c1.07,12.18,9.77,19.54,21.01,19.54c9.37,0,14.59-4.55,17.4-10.31h16.46
			C156.33,415.77,144.69,426.08,126.62,426.08z M105.74,381.37h40.82c-0.27-11.38-9.23-18.6-20.61-18.6
			C115.64,362.77,107.34,369.73,105.74,381.37z"/>
		<path d="M204.25,426.08c-17.67,0-30.12-10.44-30.78-23.82h15.79c0.53,6.02,6.29,10.98,14.72,10.98c8.83,0,13.52-3.75,13.52-8.83
			c0-14.46-42.83-6.16-42.83-33.19c0-11.78,10.98-21.28,28.37-21.28c16.73,0,27.71,8.97,28.51,23.69h-15.26
			c-0.54-6.42-5.49-10.84-13.79-10.84c-8.16,0-12.45,3.35-12.45,8.3c0,14.86,41.63,6.56,42.43,33.19
			C232.49,416.71,221.64,426.08,204.25,426.08z"/>
		<path d="M246.94,331.58c0-5.49,4.28-9.77,9.77-9.77c5.35,0,9.64,4.28,9.64,9.77c0,5.49-4.28,9.77-9.64,9.77
			C251.22,341.35,246.94,337.07,246.94,331.58z M248.95,351.13h15.26v73.75h-15.26V351.13z"/>
		<path d="M314,349.92c12.05,0,21.01,5.62,25.56,11.91v-10.71h15.39v74.95c0,20.08-12.98,35.2-36,35.2
			c-19.67,0-34.26-9.77-36.14-26.1h15.12c2.28,7.63,10.44,12.85,21.01,12.85c11.78,0,20.61-7.23,20.61-21.95v-12.31
			c-4.68,6.29-13.52,12.31-25.56,12.31c-19.41,0-34.8-15.66-34.8-38.41C279.2,364.91,294.59,349.92,314,349.92z M317.21,363.17
			c-11.38,0-22.35,8.57-22.35,24.49c0,15.93,10.98,25.16,22.35,25.16c11.51,0,22.35-8.97,22.35-24.9
			C339.56,372.14,328.72,363.17,317.21,363.17z"/>
		<path d="M427.36,383.65c0-13.52-7.36-20.48-18.47-20.48c-11.24,0-18.6,6.96-18.6,20.48v41.22h-15.26v-73.75h15.26v8.43
			c4.95-6.02,13.12-9.64,21.95-9.64c17.27,0,30.25,10.84,30.25,31.45v43.5h-15.12V383.65z"/>
		<g>
			
				<linearGradient id="SVGID_00000091702249107755461890000011969184198330858162_" gradientUnits="userSpaceOnUse" x1="398.1387" y1="466.9384" x2="869.8065" y2="466.9384">
				<stop  offset="0" style="stop-color:#00A2DF"/>
				<stop  offset="0.5" style="stop-color:#DE1C8F"/>
				<stop  offset="1" style="stop-color:#F8DB08"/>
			</linearGradient>
			<path style="fill:url(#SVGID_00000091702249107755461890000011969184198330858162_);" d="M856.44,491.82H411.51
				c-7.38,0-13.37-5.99-13.37-13.37v-23.01c0-7.38,5.99-13.37,13.37-13.37h444.93c7.38,0,13.37,5.99,13.37,13.37v23.01
				C869.81,485.83,863.82,491.82,856.44,491.82z"/>
			<g>
				<g>
					<path class="st1" d="M430.45,452.01c6.95,0,12.12,3.48,14.35,9.45h-3.65c-1.74-4.15-5.39-6.73-10.7-6.73
						c-6.82,0-12.03,5.04-12.03,13.19c0,8.11,5.22,13.15,12.03,13.15c5.3,0,8.96-2.59,10.7-6.64h3.65
						c-2.23,5.88-7.4,9.36-14.35,9.36c-8.65,0-15.24-6.51-15.24-15.87C415.21,458.56,421.81,452.01,430.45,452.01z"/>
					<path class="st1" d="M451,466.94v-7.76h3.12v4.32c1.34-2.99,4.14-4.77,8.33-4.77v3.25h-0.85c-4.05,0-7.49,1.83-7.49,7.93v13.59
						H451V466.94"/>
					<path class="st1" d="M477.65,483.88c-6.91,0-11.95-4.81-11.95-12.52c0-7.75,4.95-12.52,11.95-12.52
						c7.13,0,11.5,5.08,11.5,11.28c0,0.98,0,1.6-0.09,2.45h-20.19c0.27,5.71,4.24,8.69,8.78,8.69c4.14,0,6.95-2.18,7.84-5.44h3.3
						C487.68,480.4,483.76,483.88,477.65,483.88z M468.87,470.01h17.12c0.13-5.66-3.97-8.51-8.47-8.51
						C473.1,461.5,469.23,464.35,468.87,470.01z"/>
					<path class="st1" d="M505.06,458.83c4.9,0,8.25,2.63,9.63,5.71v-5.35h3.12v24.34h-3.12v-5.39c-1.43,3.12-4.81,5.75-9.67,5.75
						c-6.64,0-11.59-4.95-11.59-12.57C493.43,463.68,498.37,458.83,505.06,458.83z M505.64,461.55c-5.13,0-9.05,3.57-9.05,9.76
						c0,6.15,3.92,9.85,9.05,9.85c4.99,0,9.05-3.74,9.05-9.81C514.69,465.29,510.63,461.55,505.64,461.55z"/>
					<path class="st1" d="M525.83,461.81h-3.39v-2.63h3.39v-6.11h3.16v6.11h6.69v2.63h-6.69v15.11c0,2.99,1.03,3.92,3.83,3.92h2.85
						v2.67h-3.34c-4.24,0-6.51-1.74-6.51-6.6V461.81z"/>
					<path class="st1" d="M551.32,483.88c-6.91,0-11.94-4.81-11.94-12.52c0-7.75,4.95-12.52,11.94-12.52
						c7.13,0,11.5,5.08,11.5,11.28c0,0.98,0,1.6-0.09,2.45h-20.19c0.27,5.71,4.24,8.69,8.78,8.69c4.14,0,6.95-2.18,7.84-5.44h3.3
						C561.35,480.4,557.43,483.88,551.32,483.88z M542.54,470.01h17.12c0.13-5.66-3.97-8.51-8.47-8.51
						C546.77,461.5,542.9,464.35,542.54,470.01z"/>
					<path class="st1" d="M602.35,470.24h-6.28v13.28h-3.12v-31.16h9.4c7.22,0,10.52,3.83,10.52,8.96
						C612.87,466.36,609.66,470.24,602.35,470.24z M602.35,467.56c5.26,0,7.31-2.41,7.31-6.24c0-4.01-2.05-6.33-7.31-6.33h-6.28
						v12.57H602.35z"/>
					<path class="st1" d="M621.2,483.52h-3.12v-24.34h3.12v4.32c1.34-2.99,4.14-4.77,8.33-4.77v3.25h-0.85
						c-4.05,0-7.49,1.83-7.49,7.93V483.52z"/>
					<path class="st1" d="M633.5,452.27c0-1.34,1.02-2.27,2.27-2.27c1.25,0,2.27,0.94,2.27,2.27s-1.02,2.32-2.27,2.32
						C634.53,454.59,633.5,453.61,633.5,452.27z M634.22,459.18h3.12v24.34h-3.12V459.18z"/>
					<path class="st1" d="M662.65,469.61c0-5.39-2.94-8.16-7.4-8.16c-4.55,0-7.71,2.85-7.71,8.78v13.28h-3.12v-24.34h3.12v4.15
						c1.56-3.03,4.68-4.59,8.29-4.59c5.53,0,9.89,3.39,9.89,10.52v14.26h-3.08V469.61z"/>
					<path class="st1" d="M673.52,461.81h-3.39v-2.63h3.39v-6.11h3.16v6.11h6.69v2.63h-6.69v15.11c0,2.99,1.03,3.92,3.83,3.92h2.85
						v2.67h-3.34c-4.24,0-6.51-1.74-6.51-6.6V461.81z"/>
					<path class="st1" d="M738.64,468.01c0,9.67-6.11,15.51-16.49,15.51h-9.23v-31.16h9.23
						C732.53,452.36,738.64,458.25,738.64,468.01z M722.14,480.93c8.82,0,13.33-4.9,13.33-12.93c0-8.07-4.5-13.06-13.33-13.06h-6.11
						v25.98H722.14z"/>
					<path class="st1" d="M754.9,483.88c-6.91,0-11.95-4.81-11.95-12.52c0-7.75,4.95-12.52,11.95-12.52c7.13,0,11.5,5.08,11.5,11.28
						c0,0.98,0,1.6-0.09,2.45h-20.19c0.27,5.71,4.24,8.69,8.78,8.69c4.14,0,6.95-2.18,7.84-5.44h3.3
						C764.93,480.4,761.01,483.88,754.9,483.88z M746.12,470.01h17.12c0.13-5.66-3.97-8.51-8.47-8.51
						C750.36,461.5,746.48,464.35,746.12,470.01z"/>
					<path class="st1" d="M772.1,450.54h3.12v32.98h-3.12V450.54z"/>
					<path class="st1" d="M781.6,452.27c0-1.34,1.02-2.27,2.27-2.27s2.27,0.94,2.27,2.27s-1.02,2.32-2.27,2.32
						S781.6,453.61,781.6,452.27z M782.31,459.18h3.12v24.34h-3.12V459.18z"/>
					<path class="st1" d="M792.96,459.18l8.2,21.3l8.2-21.3h3.3l-9.76,24.34h-3.52l-9.76-24.34H792.96z"/>
					<path class="st1" d="M827.41,483.88c-6.91,0-11.95-4.81-11.95-12.52c0-7.75,4.95-12.52,11.95-12.52
						c7.13,0,11.5,5.08,11.5,11.28c0,0.98,0,1.6-0.09,2.45h-20.19c0.27,5.71,4.24,8.69,8.78,8.69c4.14,0,6.95-2.18,7.84-5.44h3.3
						C837.44,480.4,833.52,483.88,827.41,483.88z M818.63,470.01h17.12c0.13-5.66-3.97-8.51-8.47-8.51
						C822.87,461.5,818.99,464.35,818.63,470.01z"/>
					<path class="st1" d="M847.74,483.52h-3.12v-24.34h3.12v4.32c1.34-2.99,4.14-4.77,8.33-4.77v3.25h-0.85
						c-4.05,0-7.49,1.83-7.49,7.93V483.52z"/>
				</g>
				<circle class="st1" cx="578.18" cy="471.62" r="2.49"/>
				<circle class="st1" cx="697.98" cy="471.62" r="2.49"/>
			</g>
		</g>
	</g>
</g>
</svg>
